<svg xmlns="http://www.w3.org/2000/svg" width="17" height="19" viewBox="0 0 17 19"><g><g><path fill="#fff" d="M15.07 16.822c-.986 1.437-1.972 2.15-2.947 2.15-.39 0-.917-.121-1.605-.351-.676-.242-1.26-.351-1.73-.351-.46 0-1.01.12-1.629.362-.63.252-1.135.373-1.513.373-1.18 0-2.316-.955-3.45-2.842C1.082 14.276.51 12.444.51 10.645c0-1.678.436-3.039 1.295-4.103.86-1.053 1.938-1.58 3.256-1.58.562 0 1.227.11 2.03.33.79.22 1.318.329 1.581.329.333 0 .883-.12 1.64-.373.757-.242 1.421-.373 1.983-.373.917 0 1.731.241 2.442.713.401.263.802.636 1.192 1.097-.596.483-1.032.91-1.307 1.294a3.785 3.785 0 0 0-.745 2.271c0 .9.264 1.723.791 2.447.528.724 1.135 1.185 1.811 1.382-.286.867-.745 1.788-1.41 2.743zm-3.233-14.12a4.497 4.497 0 0 1-1.067 1.515c-.412.395-.825.658-1.238.79-.263.076-.653.142-1.192.186.023-1.086.321-2.03.894-2.82S10.77 1.047 12.1.75c.023.099.046.176.058.241 0 .077.011.143.011.22 0 .45-.115.954-.332 1.492z"/></g></g></svg>