<svg xmlns="http://www.w3.org/2000/svg" width="19" height="23" viewBox="0 0 19 23"><g><g><path fill="#fff" d="M7.172 4.653a.52.52 0 1 0-1.04 0 .52.52 0 0 0 1.04 0zm5.684 0a.52.52 0 0 0-1.04 0 .52.52 0 1 0 1.04 0zM2.758 8.964v5.704c0 .756-.608 1.366-1.377 1.366-.77 0-1.391-.61-1.391-1.366V8.964c0-.743.621-1.353 1.39-1.353.757 0 1.378.61 1.378 1.353zm12.933 7.734c0 .809-.661 1.459-1.471 1.459h-1.013v3.011c0 .756-.62 1.366-1.39 1.366-.77 0-1.39-.61-1.39-1.366v-3.011H8.562v3.011c0 .756-.621 1.366-1.39 1.366-.757 0-1.378-.61-1.378-1.366l-.013-3.011h-1c-.823 0-1.484-.65-1.484-1.46V7.864H15.69zM12.56 2.49c1.89.955 3.173 2.786 3.173 4.895H3.244c0-2.11 1.282-3.94 3.186-4.895L5.47.753A.191.191 0 0 1 5.54.488c.094-.04.216-.013.27.08l.972 1.75a6.787 6.787 0 0 1 2.714-.557c.972 0 1.89.2 2.713.558L13.18.568c.054-.093.176-.12.27-.08a.191.191 0 0 1 .068.265zM19 14.668c0 .756-.621 1.367-1.39 1.367-.757 0-1.378-.61-1.378-1.367V8.964c0-.756.621-1.353 1.377-1.353.77 0 1.391.597 1.391 1.353z"/></g></g></svg>