<svg xmlns="http://www.w3.org/2000/svg" width="20" height="20" viewBox="0 0 20 20"><defs><clipPath id="6a2xa"><path fill="#fff" d="M20 10c0 5.523-4.477 10-10 10S0 15.523 0 10 4.477 0 10 0s10 4.477 10 10z"/></clipPath></defs><g><g><path fill="#fff" d="M8.698 6.937v1.377H7.69v1.683h1.008V15h2.072V9.997h1.39s.131-.807.194-1.69h-1.576v-1.15c0-.173.226-.404.45-.404h1.128V5h-1.535C8.647 5 8.698 6.685 8.698 6.937z"/></g><g><path fill="none" stroke="#fff" stroke-miterlimit="20" stroke-width="2.6" d="M20 10c0 5.523-4.477 10-10 10S0 15.523 0 10 4.477 0 10 0s10 4.477 10 10z" clip-path="url(&quot;#6a2xa&quot;)"/></g></g></svg>