<svg xmlns="http://www.w3.org/2000/svg" width="20" height="20" viewBox="0 0 20 20"><g><g><path fill="#fff" d="M15.579 4.421a1.065 1.065 0 1 1-1.796.962 1.153 1.153 0 0 1 0-.209c.002-.281.113-.552.31-.753a1.034 1.034 0 0 1 1.05-.26c.164.051.314.14.436.26zM14.115 10a4.115 4.115 0 1 1-8.23 0 4.115 4.115 0 0 1 8.23 0zm-1.277 0a2.839 2.839 0 1 0-5.677 0 2.839 2.839 0 0 0 5.677 0zM20 10A10 10 0 1 1 10 0a10.009 10.009 0 0 1 10 10zm-1.277 0A8.723 8.723 0 1 0 10 18.723 8.736 8.736 0 0 0 18.723 10z"/></g></g></svg>