<svg xmlns="http://www.w3.org/2000/svg" width="20" height="20" viewBox="0 0 20 20"><g><g><path fill="#fff" d="M20 10.062C19.964 15.542 15.48 20 10.002 20h-.066a9.928 9.928 0 0 1-7.052-2.973A9.931 9.931 0 0 1 0 9.937C.036 4.458 4.52 0 9.998 0 15.574.036 20.03 4.551 20 10.062zm-2.146 3.547a8.588 8.588 0 0 0 .795-3.556 8.566 8.566 0 0 0-.79-3.662L13.885 10zM2.79 5.24L7.5 9.52l2.497 2.271 7.216-6.56a8.65 8.65 0 0 0-7.163-3.884 8.691 8.691 0 0 0-7.26 3.893zm-.65 1.151a8.587 8.587 0 0 0-.794 3.556 8.58 8.58 0 0 0 .786 3.666L6.11 10zm7.857 12.262c3.004 0 5.66-1.55 7.216-3.889l-4.284-3.893-2.497 2.267a.655.655 0 0 1-.435.169.655.655 0 0 1-.436-.17l-2.497-2.266-4.292 3.898c.31.467.666.907 1.066 1.311a8.593 8.593 0 0 0 6.101 2.573z"/></g></g></svg>