<svg xmlns="http://www.w3.org/2000/svg" width="44" height="44" viewBox="0 0 44 44"><g><g><path fill="#fff" d="M22.156 0C34.286.088 44.084 10.026 44 22.16c-.086 12.045-9.953 21.844-21.996 21.844h-.159a22.39 22.39 0 0 1-1.233-.046c-.091-.005-.181-.015-.273-.022-.348-.027-.694-.06-1.039-.102-.13-.016-.26-.035-.39-.053a22.825 22.825 0 0 1-.958-.157 21.625 21.625 0 0 1-2.838-.727c-.082-.027-.162-.056-.243-.084a23.124 23.124 0 0 1-.993-.369l-.253-.102a21.594 21.594 0 0 1-1.109-.493l-.045-.02a22.092 22.092 0 0 1-2.318-1.301l-.118-.077a23.52 23.52 0 0 1-1.022-.706c-.017-.012-.032-.022-.048-.035-1.085-.8-2.093-1.7-3.011-2.68l-.019-.02a22.138 22.138 0 0 1-2.489-3.206c-.023-.014-.047-.026-.07-.041-.024-.043-.052-.083-.08-.124.002-.025-.005-.05-.004-.074l-.027-.048a21.995 21.995 0 0 1-1.32-2.487c-.031-.067-.06-.135-.09-.202a22.107 22.107 0 0 1-.502-1.235l-.023-.062c-.161-.44-.306-.888-.44-1.343-.023-.077-.043-.155-.065-.234A20.776 20.776 0 0 1 .54 26.82c-.023-.1-.047-.2-.068-.3-.094-.455-.18-.912-.246-1.375l-.013-.112c-.058-.42-.102-.844-.136-1.27-.011-.13-.019-.262-.027-.393a20.726 20.726 0 0 1-.041-1.163c-.001-.07-.008-.136-.008-.206l.002-.08L0 21.845c.002-.155.012-.308.015-.463.006-.197.008-.397.02-.594.009-.158.024-.316.036-.474.016-.216.03-.434.054-.649.013-.123.032-.244.047-.367.03-.25.061-.499.1-.745.012-.075.027-.149.04-.223.05-.293.103-.586.163-.875l.013-.054C2.383 8.535 9.63 1.629 18.674.252l.066-.008A21.778 21.778 0 0 1 21.997 0zm-2.053 42.503a28.99 28.99 0 0 1-4.582-4.224 36.08 36.08 0 0 1-9.202-2.947c.007.008.014.015.02.024.201.234.407.464.617.69.013.012.023.025.036.038.213.226.43.448.652.664l.036.033c.223.217.452.429.685.636l.035.03c.234.206.473.407.716.603l.036.029c.244.195.491.384.744.568l.039.029c.252.183.508.36.766.53.017.012.032.02.048.03.259.17.521.334.788.492l.053.031c.266.156.534.307.807.452l.06.03c.27.143.545.28.823.41.024.012.048.022.071.032.276.128.555.252.838.368a21.492 21.492 0 0 0 .93.357l.089.03c.285.1.573.194.863.282l.096.028c.29.086.58.165.874.238l.107.025c.292.072.587.137.884.195l.113.021c.296.056.594.107.895.15l.12.016a20.594 20.594 0 0 0 .943.11zM4.448 32.756a34.536 34.536 0 0 0 9.697 3.813c-1.937-2.624-3.327-5.528-4.114-8.603a34.36 34.36 0 0 1-8.57-4.54l.001.02c.116 1.674.435 3.293.928 4.834l.045.137c.106.325.222.646.344.964l.074.19c.127.321.26.638.404.949l.055.124a20.4 20.4 0 0 0 1.136 2.112zm-2.651-14.73a20.569 20.569 0 0 0-.383 3.602 32.843 32.843 0 0 0 8.26 4.701 24.075 24.075 0 0 1-.4-4.328c0-1.259.11-2.5.3-3.722a32.091 32.091 0 0 1-6.757-3.745c-.018.048-.04.095-.057.143a20.923 20.923 0 0 0-.471 1.381c-.036.115-.068.23-.101.345-.056.198-.112.398-.163.6-.02.081-.038.165-.058.248-.055.233-.108.467-.156.703-.006.024-.01.048-.014.072zm1.59-4.812a30.658 30.658 0 0 0 6.448 3.656 24.421 24.421 0 0 1 2.706-6.995 26.354 26.354 0 0 1-5.002-2.507c-.103.102-.201.207-.303.31-.219.226-.433.456-.642.692-.142.16-.284.318-.421.484-.262.313-.511.637-.754.967a18.258 18.258 0 0 0-1.054 1.574c-.094.155-.184.312-.274.47-.224.395-.44.796-.638 1.206-.023.047-.043.095-.066.143zm5.234-6.837a24.867 24.867 0 0 0 4.675 2.27c1.749-2.676 4.04-5.095 6.809-7.151-.526.048-1.046.119-1.56.206l-.137.024a20.325 20.325 0 0 0-3.158.825c-.432.151-.859.313-1.278.492-.087.036-.173.078-.26.116a20.79 20.79 0 0 0-.99.471c-.125.064-.252.127-.376.193-.36.192-.713.395-1.06.608-.145.088-.288.182-.43.274a21.32 21.32 0 0 0-.723.49c-.163.116-.327.231-.486.352-.278.208-.547.424-.813.645l-.213.185zm14.108 21.254c2.79-.36 4.953-2.746 4.953-5.631 0-2.886-2.163-5.27-4.953-5.631zm-1.43 9.803v-7.403a35.304 35.304 0 0 1-9.655-1.526c.918 3.057 2.472 5.923 4.608 8.471 1.644.27 3.33.424 5.046.459zm0 1.405a36.821 36.821 0 0 1-3.552-.236 28.37 28.37 0 0 0 3.551 3.021zm0-10.212v-7.95a32.999 32.999 0 0 1-10.385-1.888A22.508 22.508 0 0 0 10.679 22c0 1.664.19 3.297.544 4.89a33.862 33.862 0 0 0 10.075 1.737zm0-9.354v-7.705a27.007 27.007 0 0 1-7.395-1.221 23.049 23.049 0 0 0-2.745 7.038 31.587 31.587 0 0 0 10.14 1.888zm-.002-9.123V2.374c-2.681 1.93-4.906 4.21-6.613 6.737a25.62 25.62 0 0 0 6.613 1.04zm1.432 24.962C29.641 34.73 35.153 29.006 35.153 22S29.642 9.27 22.729 8.888v6.063c3.566.366 6.357 3.388 6.357 7.049 0 3.66-2.79 6.683-6.357 7.049zm0 7.465c10.942-.385 19.788-9.4 19.866-20.431.078-11.161-8.781-20.333-19.866-20.723v6.063C30.416 7.869 36.557 14.22 36.557 22c0 7.779-6.141 14.128-13.828 14.512z"/></g></g></svg>