<svg xmlns="http://www.w3.org/2000/svg" width="20" height="20" viewBox="0 0 20 20"><defs><clipPath id="fcpxa"><path fill="#fff" d="M20 10c0 5.523-4.477 10-10 10S0 15.523 0 10 4.477 0 10 0s10 4.477 10 10z"/></clipPath></defs><g><g><path fill="none" stroke="#fff" stroke-miterlimit="20" stroke-width="2.6" d="M20 10c0 5.523-4.477 10-10 10S0 15.523 0 10 4.477 0 10 0s10 4.477 10 10z" clip-path="url(&quot;#fcpxa&quot;)"/></g><g><path fill="#fff" d="M11.603 9.733c.196.092.196.242-.001.334l-2.245 1.048c-.196.091-.357-.011-.357-.228V8.913c0-.217.161-.319.357-.228zM15 9.9c0-3.457-.086-3.9-5-3.9s-5 .443-5 3.9.086 3.9 5 3.9 5-.443 5-3.9z"/></g></g></svg>